<svg width="175" height="226" viewBox="0 0 175 226" fill="none" xmlns="http://www.w3.org/2000/svg">
<path fill-rule="evenodd" clip-rule="evenodd" d="M91.3241 123.832L45.2837 169.116L0 123.832L13.7726 109.491L31.2874 124.498L32.4721 124.5V35.8248C32.4721 15.978 48.4501 0 68.297 0H108.971C128.818 0 144.796 15.978 144.796 35.8248V47.3191H114.183V38.0894C114.183 27.1119 105.345 18.2742 94.3675 18.2742H78.623C67.6455 18.2742 58.8078 27.1119 58.8078 38.0894V124.561L60.4814 124.564L75.4747 109.491L91.3241 123.832ZM83.676 102.124L129.716 56.8409L175 102.125L161.227 116.466L143.713 101.459L142.528 101.456V190.132C142.528 209.979 126.55 225.957 106.703 225.957H66.0287C46.1818 225.957 30.2038 209.979 30.2038 190.132V178.638H60.8173V187.867C60.8173 198.845 69.6551 207.682 80.6326 207.682H96.3771C107.355 207.682 116.192 198.845 116.192 187.867V101.395L114.519 101.393L99.5254 116.466L83.676 102.124Z" fill="white"/>
</svg>
