<svg width="166" height="149" viewBox="0 0 166 149" fill="none" xmlns="http://www.w3.org/2000/svg">
<path d="M5.38723 0.000443835C4.61095 -0.00957597 3.84189 0.150166 3.13405 0.468452C2.42621 0.786738 1.79676 1.25585 1.2899 1.84284C0.78305 2.42983 0.411081 3.12047 0.200122 3.86625C-0.0108377 4.61203 -0.0556722 5.39487 0.0687669 6.15979L22.6466 142.974C22.9279 144.648 23.7911 146.17 25.0848 147.272C26.3785 148.374 28.0198 148.985 29.7204 149H138.035C139.31 149.016 140.548 148.574 141.524 147.756C142.5 146.937 143.149 145.796 143.353 144.54L165.931 6.18633C166.056 5.42145 166.011 4.6387 165.8 3.89303C165.588 3.14736 165.216 2.45686 164.71 1.87001C164.203 1.28315 163.573 0.814178 162.865 0.49601C162.158 0.177841 161.389 0.0181933 160.612 0.0282761L5.38723 0.000443835ZM100.458 98.8814H65.8869L56.5261 50.0649H108.835L100.458 98.8814Z" fill="white"/>
</svg>
