<svg width="172" height="248" viewBox="0 0 172 248" fill="none" xmlns="http://www.w3.org/2000/svg">
<path d="M66.5578 0H40.4791V33.4215H66.5592V22.2815H51.3852V11.1407H66.5578V0Z" fill="white"/>
<path d="M97.8537 0H71.7743L71.7736 21.7959H86.9482V23.7333H71.7749V33.9064H97.8537V11.6249H82.6804V9.68754H97.8537V0Z" fill="white"/>
<path d="M129.149 0H103.071V21.7959H118.243V23.7333H103.07V33.9064H129.149V11.6249H113.976V9.68754H129.149V0Z" fill="white"/>
<path fill-rule="evenodd" clip-rule="evenodd" d="M85.8948 248L15.6533 228.081L0 48.7381H172L156.33 228.053L85.8948 248ZM37.8143 151.913L35.8847 129.917L114.308 129.917L116.267 107.394L33.9638 107.393L32.0065 85.3978L139.865 85.3979L135.978 129.917L135.453 135.824L130.068 197.448L86 209.923V209.927L85.9009 209.955L41.7928 197.448L38.7764 162.911H60.3918L61.925 180.454L85.9056 187.068L85.9251 187.063L109.941 180.44L112.441 151.913L37.8143 151.913Z" fill="white"/>
</svg>
