<svg width="134" height="209" viewBox="0 0 134 209" fill="none" xmlns="http://www.w3.org/2000/svg">
<path d="M33.4999 0C15.008 0 0 15.6053 0 34.8333C0 54.047 14.9857 69.6434 33.4587 69.6665C14.9857 69.6897 0 85.286 0 104.5C0 123.728 15.008 139.333 33.4999 139.333H66.9998V69.6666V0H33.4999Z" fill="white"/>
<path d="M33.4999 209C51.9919 209 66.9998 193.395 66.9998 174.166V139.333H33.4999C15.008 139.333 0 154.938 0 174.166C0 193.395 15.008 209 33.4999 209Z" fill="white"/>
<path d="M66.9998 0H100.5C118.992 0 134 15.6053 134 34.8333C134 54.047 119.014 69.6434 100.541 69.6665C119.014 69.6897 134 85.286 134 104.5C134 123.728 118.992 139.333 100.5 139.333C82.0079 139.333 66.9999 123.728 66.9999 104.5C66.9999 85.2935 81.974 69.7018 100.437 69.6666H66.9998V0Z" fill="white"/>
</svg>
