<svg width="241" height="241" viewBox="0 0 241 241" fill="none" xmlns="http://www.w3.org/2000/svg">
<path d="M120.5 0C53.9225 0 0 54.7448 0 122.338C0 179.831 38.8574 227.548 91.2826 241C90.6775 239.469 90.3801 237.325 90.3801 235.19V214.388H75.3151C67.1826 214.388 59.6449 210.723 56.3325 203.986C52.4149 196.646 51.8099 185.329 41.8725 178.29C38.8574 175.843 41.2674 173.397 44.5799 173.699C50.9074 175.531 56.0248 179.821 60.8448 186.234C65.6648 192.658 67.7774 194.189 76.8123 194.189C81.0273 194.189 87.6522 193.887 93.6823 192.96C96.9948 184.392 102.717 176.749 109.65 173.084C69.2849 168.191 50.0049 148.003 50.0049 120.474C50.0049 108.542 55.1223 97.2246 63.5625 87.4376C60.8551 77.9525 57.2349 58.3785 64.7726 50.7363C82.8527 50.7363 93.6926 62.6681 96.4 65.7188C105.435 62.6577 115.383 60.8253 125.617 60.8253C136.16 60.8253 145.8 62.6577 154.835 65.7188C157.542 62.6577 168.392 50.7363 186.462 50.7363C193.692 58.0766 190.38 77.9525 187.365 87.4376C195.805 96.9227 200.625 108.542 200.625 120.474C200.625 148.003 181.642 168.191 141.585 172.47C152.732 178.28 160.568 194.793 160.568 207.027V234.888C160.568 235.805 160.27 236.721 160.27 237.637C207.26 221.124 241 175.864 241 122.338C241 54.7448 187.078 0 120.5 0Z" fill="white"/>
</svg>
