<svg width="178" height="250" viewBox="0 0 178 250" fill="none" xmlns="http://www.w3.org/2000/svg">
<path d="M27.8847 0H16.5611V33.7126H27.8854V22.4237H38.2447V33.7126H49.569V0H38.244V11.1327H27.8847V0Z" fill="white"/>
<path d="M54.4923 11.1799H64.4601L64.4622 33.7126H75.7865V11.1799H85.7607V0H54.4923V11.1799Z" fill="white"/>
<path d="M102.531 0H90.723V33.7126H101.803V17.0028L109.599 28.9894H109.794L117.585 17.0028V33.7126H128.863V0H117.051L109.794 11.8457L102.531 0Z" fill="white"/>
<path d="M145.827 0H134.499L134.498 33.7126H161.752V22.5695H145.827V0Z" fill="white"/>
<path fill-rule="evenodd" clip-rule="evenodd" d="M178 49.1312L161.784 229.892L88.8912 250L16.1994 229.92L0 49.1312H178ZM59.5125 130.965L57.4758 108.26L142.748 108.259L144.743 86.0864L33.1226 86.0865L39.1329 153.138L116.362 153.138L113.775 181.895L88.9217 188.57L88.9019 188.577L64.0848 181.909L62.4981 164.225H40.1286L43.2503 199.04L88.897 211.648L88.9996 211.62V211.616L134.605 199.04L140.177 136.919L140.72 130.965L59.5125 130.965Z" fill="white"/>
</svg>
