<svg width="245" height="245" viewBox="0 0 245 245" fill="none" xmlns="http://www.w3.org/2000/svg">
<path fill-rule="evenodd" clip-rule="evenodd" d="M245 0H0V245H245V0ZM83.1679 193.393L64.4196 204.74C69.847 216.252 80.537 225.789 98.9551 225.789C119.349 225.789 133.328 214.934 133.328 191.088V112.479H110.304V190.762C110.304 202.273 105.534 205.233 97.9684 205.233C90.0757 205.233 86.7854 199.806 83.1679 193.393ZM164.58 191.419L145.833 202.273C152.576 215.594 166.389 225.792 187.769 225.792C209.641 225.792 225.922 214.445 225.922 193.721C225.922 174.481 214.904 165.93 195.333 157.542L189.577 155.076C179.71 150.8 175.434 148.002 175.434 141.095C175.434 135.504 179.71 131.228 186.454 131.228C193.032 131.228 197.306 134.024 201.254 141.095L219.181 129.582C211.617 116.261 201.091 111.162 186.455 111.162C165.897 111.162 152.74 124.319 152.74 141.588C152.74 160.336 163.759 169.218 180.37 176.287L186.124 178.756C196.65 183.36 202.899 186.156 202.899 194.05C202.899 200.628 196.816 205.398 187.276 205.398C175.929 205.398 169.515 199.478 164.58 191.419Z" fill="white"/>
</svg>
