<svg width="94" height="94" viewBox="0 0 94 94" fill="none" xmlns="http://www.w3.org/2000/svg">
<path d="M15.7825 67.1134C15.7825 68.4706 16.3726 69.5329 17.5824 70.2115L23.4541 73.6342C24.3688 74.1653 25.077 74.2538 26.2277 73.6047L31.9814 70.2705C33.1616 69.6214 33.4272 68.9722 33.4272 67.8215L33.4567 63.8677L47.0885 56.9927L60.5433 63.7792L60.5728 67.851C60.5728 69.0017 60.8384 69.6509 62.0186 70.3L67.7723 73.6342C68.9231 74.2833 69.6312 74.1948 70.5459 73.6637L76.4176 70.241C77.6274 69.5624 78.2175 68.5001 78.2175 67.1429L78.2765 60.3564C78.2765 59.2942 78.0405 58.5861 76.8897 57.9369L71.077 54.5732C69.9558 53.9536 69.1296 54.0716 68.2149 54.5732L62.2842 58.0255C62.1957 58.0845 62.1072 58.114 62.0186 58.2025L49.9506 52.1242V35.6303L54.6716 32.9157C55.6453 32.3551 56.0879 31.765 56.0879 30.4372V23.7688C56.0879 22.4411 55.6453 21.8804 54.7306 21.3493L48.7999 17.9561C47.5901 17.2775 46.4099 17.2775 45.2296 17.9561L39.2989 21.3198C38.4137 21.8509 37.9121 22.4411 37.9121 23.7688V30.4372C37.9121 31.7355 38.4137 32.3846 39.3579 32.9157L44.2559 35.7188V52.1242L32.0994 58.232C31.9519 58.1435 31.8339 58.055 31.7158 57.996L25.7851 54.5437C24.8704 54.0421 24.0442 53.9241 22.923 54.5437L17.1103 57.9074C15.9596 58.5566 15.7235 59.2647 15.7235 60.3269L15.7825 67.1134Z" fill="#FFA017"/>
</svg>
