<svg width="127" height="278" viewBox="0 0 127 278" fill="none" xmlns="http://www.w3.org/2000/svg">
<path d="M62.393 1.08518C62.2793 0.621788 62.1612 0.257874 62.0384 0C61.6692 5.77656 61.4856 7.94399 55.9595 13.7205C47.4878 20.2189 3.65621 56.142 0.157748 129.252C-3.27686 197.409 50.4364 238.112 57.726 243.311C62.9015 255.202 62.4062 275.471 62.4062 275.471L69.9559 278C69.9559 278 68.4831 258.143 70.6943 248.755C71.3129 245.833 72.8077 243.281 74.5857 241.146C75.8877 240.25 79.2941 237.801 83.7837 233.775C84.0127 233.653 84.1393 233.591 84.1393 233.591L84.1298 233.464C102.009 217.307 136.251 176.733 124.654 110.295C113.111 60.4257 89.4346 36.5 77.5245 24.4643C74.0442 20.9473 71.5686 18.4456 70.694 16.6085C66.4591 10.832 62.4058 0.724451 62.4058 0.724451L62.4126 1.16637C62.4061 1.13898 62.3996 1.11191 62.393 1.08518Z" fill="white"/>
</svg>
