<svg width="233" height="261" viewBox="0 0 233 261" fill="none" xmlns="http://www.w3.org/2000/svg">
<path d="M127.007 2.7845C120.646 -0.936529 112.354 -0.919797 105.987 2.7845C98.1403 7.28889 90.2932 11.7936 82.4461 16.2984C58.4073 30.0982 34.3678 43.8985 10.3251 57.6909C4.11954 61.0865 -0.0659689 68.0183 0.000787081 75.2131V185.802C-0.0440217 193.137 4.3573 200.136 10.7229 203.485C14.1787 205.397 17.5975 207.383 21.016 209.368C26.6588 212.646 32.301 215.923 38.1084 218.869C48.8808 224.375 62.3582 225.593 73.2623 219.851C82.1134 215.092 86.0447 204.508 86.0337 194.781C86.0788 171.729 86.0713 148.677 86.0638 125.625C86.0594 112.179 86.0551 98.7335 86.0611 85.2877C86.2715 83.6656 85.101 81.9319 83.4 81.971C79.3252 81.9041 75.2448 81.9319 71.17 81.9598C69.63 81.8083 68.1276 83.1385 68.2437 84.7485C68.215 103.742 68.2193 122.74 68.2237 141.737C68.2277 159.009 68.2317 176.281 68.2108 193.552C68.2995 198.569 65.0412 203.39 60.393 205.085C55.1257 207.089 49.2557 205.535 44.4749 202.919C41.6029 201.27 38.7303 199.623 35.8576 197.977C30.2422 194.758 24.6268 191.538 19.0162 188.304C18.454 188.033 17.9869 187.594 17.6779 187.045C17.3689 186.496 17.2327 185.864 17.2878 185.234C17.2878 173.072 17.2885 160.909 17.2891 148.747C17.2903 124.423 17.2915 100.1 17.2878 75.7801C17.1333 74.3095 18.0048 72.9849 19.3033 72.3844C36.9866 62.2602 54.6649 52.1219 72.3437 41.9832C86.4372 33.9007 100.531 25.818 114.628 17.7421C115.18 17.3589 115.833 17.1544 116.501 17.1554C117.169 17.1564 117.821 17.3628 118.372 17.7476C132.408 25.7859 146.441 33.8286 160.475 41.8715C178.217 52.04 195.96 62.2086 213.708 72.3686C215.011 72.9682 215.845 74.3151 215.712 75.7801C215.71 89.0507 215.711 102.322 215.712 115.594C215.714 138.806 215.715 162.018 215.701 185.228C215.795 186.52 215.154 187.771 213.995 188.338C197.624 197.748 181.24 207.138 164.857 216.528C149.922 225.087 134.987 233.647 120.061 242.223C119.868 242.332 119.671 242.449 119.47 242.569C118.109 243.382 116.567 244.302 115.042 243.407C110.343 240.703 105.676 237.939 101.01 235.175C97.5292 233.114 94.0491 231.052 90.5557 229.016C89.6669 228.439 88.5348 228.192 87.6075 228.837C87.3854 228.959 87.1633 229.081 86.9412 229.203C83.4952 231.095 80.0326 232.996 76.2828 234.208C75.8059 234.404 75.2994 234.563 74.79 234.722C73.4063 235.156 72.0013 235.596 71.1096 236.817C72.2015 238.341 73.8085 239.249 75.3999 240.149C75.8199 240.386 76.2387 240.623 76.6467 240.87C81.0056 243.436 85.3678 245.997 89.7302 248.558C94.9388 251.617 100.148 254.675 105.352 257.742C111.647 261.828 120.106 262.119 126.604 258.342C141.718 249.679 156.83 241.01 171.942 232.342C188.717 222.719 205.492 213.097 222.272 203.48C228.621 200.113 233.044 193.142 232.999 185.801V75.2131C233.061 68.1642 229.035 61.3561 223.017 57.9102C204.278 47.1386 185.534 36.3807 166.789 25.6226C153.528 18.0116 140.267 10.4005 127.007 2.7845Z" fill="white"/>
<path d="M175.124 85.8153C162.608 78.8501 147.718 78.4792 133.809 79.3892C123.761 80.422 113.192 83.3064 105.871 90.7987C98.3622 98.3309 96.728 110.493 100.294 120.326C102.85 127.274 109.284 131.792 115.936 134.182C124.507 137.329 133.507 138.302 142.511 139.275C150.724 140.163 158.939 141.051 166.832 143.589C170.056 144.701 173.811 146.401 174.799 150.05C175.711 154.371 174.711 159.395 171.338 162.397C165.275 167.388 157.054 167.743 149.54 168.068C149.128 168.085 148.72 168.103 148.313 168.121C147.519 168.109 146.719 168.099 145.914 168.09C137.13 167.991 127.799 167.886 120.233 162.924C115.953 159.966 114.108 154.73 113.359 149.741C113.275 148.186 112.072 146.76 110.449 146.878C106.385 146.828 102.321 146.839 98.257 146.872C96.8387 146.749 95.3646 147.798 95.2868 149.303C94.9613 158.215 98.2406 167.448 104.955 173.374C112.806 180.418 123.39 183.135 133.561 184.313C144.377 185.385 155.43 185.324 166.081 182.91C174.087 181.013 182.115 177.522 187.626 171.107C194.422 163.312 195.758 151.705 192.711 141.995C190.38 134.75 183.721 130.102 176.914 127.711C167.657 124.41 157.982 123.107 148.302 121.804C140.789 120.793 133.272 119.781 125.947 117.834C125.823 117.794 125.697 117.754 125.571 117.714C122.738 116.812 119.426 115.758 118.184 112.76C116.809 108.399 117.979 102.983 121.833 100.301C126.852 96.759 133.224 96.2375 139.148 95.9177C139.36 95.9157 139.573 95.9135 139.785 95.9114C147.714 95.8315 156.088 95.7471 163.337 99.4361C168.185 101.962 170.995 107.148 172.154 112.384C172.369 113.922 173.364 115.527 175.076 115.46C177.837 115.517 180.599 115.506 183.36 115.496C184.635 115.491 185.909 115.486 187.184 115.488C188.57 115.589 190.088 114.775 190.359 113.299C190.188 102.355 184.815 91.1528 175.124 85.8153Z" fill="white"/>
</svg>
