<svg width="307" height="158" viewBox="0 0 307 158" fill="none" xmlns="http://www.w3.org/2000/svg">
<path d="M76.7502 57.171L71.4928 88.3559H84.1098C93.5716 87.3161 101.983 84.1979 103.033 66.5258C103.033 60.2892 97.7773 57.171 90.4177 57.171H76.7502Z" fill="white"/>
<path d="M217.633 57.171L212.376 88.3559H224.994C234.456 87.3161 242.867 84.1979 243.918 66.5258C243.918 60.2892 238.662 57.171 231.302 57.171H217.633Z" fill="white"/>
<path fill-rule="evenodd" clip-rule="evenodd" d="M307 79C307 122.63 238.276 158 153.5 158C68.7243 158 0 122.63 0 79C0 35.3695 68.7243 0 153.5 0C238.276 0 307 35.3695 307 79ZM59.9287 41.5785L43.1061 125.776H63.0827L67.2883 103.947H86.2108C104.085 104.987 124.061 90.4344 124.061 65.4871C124.061 50.9333 115.649 42.6183 98.8278 41.5785H59.9287ZM136.974 19.7506L120.152 103.947H140.129L149.591 57.171H165.362C172.72 57.171 172.72 60.2892 171.67 65.4871L164.31 103.947H185.337L192.697 61.329C194.799 50.9333 188.491 42.6183 171.668 41.5785H152.745L156.95 19.7506H136.974ZM200.812 41.5785L183.99 125.776H203.966L208.171 103.947H227.096C244.969 104.987 264.946 90.4344 264.946 65.4871C264.946 50.9333 256.535 42.6183 239.712 41.5785H200.812Z" fill="white"/>
</svg>
