<svg width="236" height="210" viewBox="0 0 236 210" fill="none" xmlns="http://www.w3.org/2000/svg">
<path d="M180.043 130.159C178.907 130.533 177.74 130.894 176.552 131.245C173.92 122.962 170.369 114.153 166.025 105.054C170.171 96.1695 173.585 87.4745 176.142 79.2444C178.268 79.8574 180.333 80.5025 182.322 81.1841C201.56 87.7691 213.293 97.5071 213.293 105.01C213.293 113.002 200.619 123.378 180.043 130.159Z" fill="white"/>
<path d="M171.505 146.984C173.586 157.435 173.883 166.884 172.505 174.27C171.266 180.907 168.777 185.332 165.698 187.104C159.147 190.876 145.136 185.974 130.027 173.043C128.295 171.561 126.55 169.978 124.8 168.304C130.658 161.932 136.512 154.524 142.225 146.299C152.275 145.412 161.77 143.962 170.38 141.983C170.803 143.685 171.181 145.353 171.505 146.984Z" fill="white"/>
<path d="M85.1619 186.453C78.7613 188.701 73.6635 188.765 70.5824 186.998C64.0245 183.238 61.2994 168.717 65.0172 149.242C65.4593 146.941 65.9655 144.652 66.5352 142.378C75.05 144.251 84.4755 145.599 94.5497 146.411C100.301 154.46 106.324 161.859 112.394 168.338C111.104 169.579 109.784 170.788 108.434 171.965C100.368 178.977 92.2846 183.951 85.1619 186.453Z" fill="white"/>
<path d="M55.1758 130.109C45.039 126.664 36.6678 122.186 30.9297 117.3C25.7739 112.908 23.1703 108.548 23.1703 105.01C23.1703 97.4824 34.4561 87.8798 53.2787 81.3534C55.6412 80.5378 58.0272 79.7912 60.4337 79.1144C63.0355 87.5294 66.4478 96.3277 70.5658 105.225C66.3945 114.255 62.9334 123.193 60.3076 131.707C58.5841 131.216 56.873 130.684 55.1758 130.109Z" fill="white"/>
<path d="M65.2279 62.0631C61.3206 42.2055 63.915 27.2266 70.4444 23.4679C77.3997 19.464 92.7778 25.1734 108.987 39.4863C110.023 40.4012 111.063 41.3592 112.105 42.3501C106.066 48.7997 100.098 56.1423 94.397 64.1446C84.62 65.0459 75.2607 66.4934 66.6567 68.4322C66.1267 66.3211 65.6503 64.198 65.2279 62.0631Z" fill="white"/>
<path d="M154.899 84.0836C152.867 80.5925 150.759 77.1453 148.578 73.7445C155.211 74.5771 161.566 75.6842 167.533 77.0393C165.742 82.7496 163.509 88.7207 160.879 94.8418C158.958 91.2165 156.964 87.6298 154.899 84.0836Z" fill="white"/>
<path d="M118.331 48.6616C122.427 53.0744 126.529 58.0025 130.565 63.3486C122.379 62.964 114.18 62.9621 105.995 63.3431C110.034 58.0464 114.171 53.1257 118.331 48.6616Z" fill="white"/>
<path d="M81.5287 84.144C79.4894 87.6619 77.5329 91.2267 75.6609 94.8354C73.0747 88.7353 70.8621 82.7377 69.0551 76.946C74.9865 75.6257 81.3116 74.5469 87.9017 73.728C85.6957 77.1499 83.5708 80.6229 81.5287 84.144Z" fill="white"/>
<path d="M88.0912 136.922C81.2831 136.166 74.8623 135.143 68.9328 133.859C70.7682 127.965 73.0296 121.838 75.671 115.607C77.5509 119.218 79.516 122.785 81.5646 126.305C83.655 129.895 85.8311 133.435 88.0912 136.922Z" fill="white"/>
<path d="M118.577 161.982C114.368 157.465 110.17 152.469 106.069 147.096C110.049 147.251 114.107 147.33 118.232 147.33C122.469 147.33 126.658 147.236 130.781 147.053C126.733 152.524 122.645 157.527 118.577 161.982Z" fill="white"/>
<path d="M160.964 115.29C163.742 121.588 166.085 127.682 167.945 133.476C161.917 134.844 155.41 135.946 148.553 136.764C150.75 133.3 152.878 129.792 154.935 126.244C157.026 122.637 159.036 118.985 160.964 115.29Z" fill="white"/>
<path fill-rule="evenodd" clip-rule="evenodd" d="M147.242 121.832C144.093 127.272 140.767 132.609 137.269 137.834C131.101 138.273 124.727 138.499 118.232 138.499C111.763 138.499 105.47 138.298 99.4102 137.908C95.8216 132.694 92.4326 127.348 89.2504 121.88C86.0831 116.441 83.1247 110.884 80.3815 105.222C83.1177 99.5582 86.0672 93.9985 89.2238 88.5551C92.3793 83.1105 95.7416 77.7888 99.3034 72.598C105.486 72.1332 111.825 71.8899 118.233 71.8899C124.669 71.8899 131.016 72.1351 137.197 72.6035C140.723 77.7863 144.064 83.0913 147.213 88.5084C150.381 93.9398 153.37 99.4721 156.175 105.097C153.398 110.779 150.418 116.361 147.242 121.832ZM136.795 105.01C136.795 94.8146 128.485 86.5488 118.232 86.5488C107.98 86.5488 99.669 94.8146 99.669 105.01C99.669 115.207 107.98 123.472 118.232 123.472C128.485 123.472 136.795 115.207 136.795 105.01Z" fill="white"/>
<path d="M165.562 23.2053C172.523 27.1982 175.231 43.2989 170.857 64.4137C170.57 65.7891 170.258 67.1594 169.922 68.5237C161.298 66.5446 151.932 65.0715 142.127 64.1565C136.414 56.0673 130.496 48.7119 124.554 42.3455C126.111 40.8528 127.705 39.3988 129.335 37.9848C144.682 24.7013 159.026 19.4567 165.562 23.2053Z" fill="white"/>
<path fill-rule="evenodd" clip-rule="evenodd" d="M45.4364 148.17C18.2223 138.919 0.959991 122.507 0.959991 104.926C0.959991 87.8225 19.1405 72.6295 45.4364 63.5118C39.9844 35.8001 44.2486 13.4702 59.1934 4.86679C74.6929 -4.056 96.0603 1.95078 118.343 21.6263C139.761 3.089 161.342 -4.38814 176.301 4.19062C191.817 13.0887 196.911 34.4871 190.898 63.7048C217.746 72.8966 235.04 87.753 235.04 104.926C235.04 122.739 219.184 136.733 190.839 146.053C196.423 174.112 191.771 197.529 176.471 206.338C161.585 214.907 140.252 207.798 119.144 189.733C97.49 208.558 74.6755 214.638 59.3618 205.855C44.463 197.31 40.0018 175.379 45.4364 148.17ZM178.521 70.7351C180.769 71.3782 183.001 72.0774 185.213 72.8322C207.666 80.5189 222.174 92.5599 222.174 105.01C222.174 117.994 206.669 130.689 182.837 138.542C181.577 138.957 180.287 139.356 178.971 139.742C179.44 141.62 179.859 143.463 180.218 145.268C184.923 168.903 181.3 188.329 170.149 194.748C159.353 200.963 141.903 194.858 124.235 179.738C122.315 178.091 120.441 176.39 118.616 174.639C117.167 176.032 115.72 177.362 114.278 178.615C96.0377 194.472 77.3062 201.05 66.1454 194.65C55.3398 188.451 51.944 170.369 56.292 147.595C56.7671 145.12 57.3117 142.659 57.925 140.214C56.0369 139.678 54.1626 139.095 52.3037 138.467C29.3787 130.675 14.2903 117.823 14.2903 105.01C14.2903 92.6047 28.3464 80.6442 50.3551 73.0134C52.8152 72.1607 55.3867 71.3591 58.0492 70.607C57.4788 68.3378 56.9665 66.0545 56.5128 63.7594C51.9523 40.5833 55.1613 22.0616 65.9954 15.8242C77.2942 9.31973 96.1114 16.3046 114.884 32.882C116.052 33.9154 117.2 34.9702 118.329 36.046C120.014 34.4282 121.74 32.853 123.505 31.322C141.418 15.8197 159.154 9.33437 169.998 15.5543C181.309 22.0396 184.621 41.7407 179.555 66.196C179.239 67.7152 178.894 69.2286 178.521 70.7351Z" fill="white"/>
</svg>
