<svg width="203" height="199" viewBox="0 0 203 199" fill="none" xmlns="http://www.w3.org/2000/svg">
<path d="M160.2 157.774C167.379 154.741 175.939 153.638 186.984 153.913C186.674 151.85 182.729 149.399 179.838 147.604C178.866 147 178.013 146.47 177.457 146.054C173.039 142.884 168.345 139.573 163.651 136.679C162.139 135.756 159.961 134.986 157.866 134.245C156.518 133.768 155.205 133.304 154.124 132.818C153.02 132.369 151.516 131.92 149.893 131.435C146.034 130.282 141.499 128.927 140.041 126.89C136.289 122.018 133.67 116.128 131.055 110.245C130.783 109.634 130.511 109.023 130.238 108.413C128.867 105.283 127.342 102.091 125.808 98.8808C124.099 95.3042 122.379 91.7052 120.85 88.1442C120.184 86.6927 119.677 85.3202 119.178 83.969C118.54 82.241 117.915 80.5479 116.985 78.7689C106.905 59.3281 91.9952 43.0581 73.9082 31.6144C67.9707 27.8912 61.3443 24.4438 54.026 22.1004C51.7911 21.4313 49.3156 21.3236 46.8156 21.2149C44.6819 21.1221 42.5304 21.0285 40.4957 20.5843H37.5959C35.9221 20.1199 34.4358 18.7792 33.0533 17.5321C32.3836 16.928 31.7383 16.3459 31.1077 15.8959C26.8272 13.0009 22.5474 11.0688 17.4384 9.00195C15.645 8.17458 10.536 6.24405 8.7409 7.76169C7.63545 8.03748 7.08392 8.45037 6.80776 9.55353C5.70311 11.2083 6.67047 13.6904 7.36008 15.2064C8.72895 18.1222 10.4597 20.2557 12.2332 22.4419C13.1432 23.5636 14.0644 24.6992 14.9538 25.9615C15.3779 26.5593 15.82 27.1705 16.2695 27.792C18.3084 30.611 20.4994 33.6401 21.857 36.5778C23.772 40.6973 25.1369 45.0522 26.4969 49.3914C27.6861 53.1854 28.8714 56.9673 30.4173 60.5692C31.6592 63.4658 33.5932 66.7737 35.3874 69.3937C35.9502 70.1601 36.6839 70.8509 37.4267 71.5502C38.6878 72.7374 39.9751 73.9493 40.4964 75.5981C41.8391 77.8328 39.374 84.2312 37.8762 88.119C37.5255 89.0293 37.2278 89.802 37.0444 90.3513C33.4535 101.657 34.1439 117.376 38.2863 127.165C38.4349 127.511 38.5823 127.862 38.7308 128.216C40.2396 131.813 41.8588 135.674 45.88 136.679C46.0051 136.554 46.0171 136.514 46.044 136.494C46.0766 136.471 46.131 136.478 46.4332 136.402C46.6352 134.817 46.8071 133.244 46.9766 131.693C47.618 125.824 48.2248 120.272 50.2986 115.583C51.2865 113.162 52.9166 111.207 54.5055 109.302C55.3595 108.278 56.2017 107.268 56.9257 106.208C57.8014 106.732 58.1215 107.923 58.4503 109.146C58.6397 109.85 58.832 110.566 59.1351 111.171C59.2617 111.473 59.3891 111.777 59.5173 112.082C61.2038 116.105 63.0192 120.435 65.0718 124.407C69.6277 133.231 74.7375 141.779 80.5353 149.501C82.4676 152.259 85.2301 155.293 87.7147 157.773C88.0931 158.104 88.4879 158.387 88.8766 158.665C89.6219 159.198 90.3453 159.716 90.8898 160.531H91.1668V160.946C88.5451 159.986 86.5321 157.921 84.5672 155.906C83.4274 154.737 82.3037 153.584 81.0868 152.674C74.874 147.985 67.4191 140.953 63.1386 134.197C61.7872 131.291 60.3579 128.462 58.9091 125.594C58.4335 124.653 57.9558 123.707 57.4781 122.754V122.477C56.9509 123.18 56.8715 123.881 56.776 124.726C56.7215 125.208 56.6617 125.737 56.5107 126.338C55.9995 128.303 55.7461 130.347 55.5013 132.322C54.8873 137.276 54.3268 141.799 49.8844 143.573C42.843 146.469 37.5959 138.883 35.3874 135.437C28.3469 123.994 26.4129 104.691 31.3831 89.1103C31.7677 87.911 32.0353 86.6282 32.3022 85.349C32.8023 82.9518 33.2998 80.5672 34.5597 78.7689C34.2826 77.1121 33.3289 76.2538 32.3969 75.415C31.9331 74.9976 31.4747 74.585 31.1077 74.0813C29.1746 71.4613 27.5184 68.4284 25.9995 65.5334C23.7927 61.2319 22.0669 56.2914 20.3942 51.5031C19.8684 49.9978 19.3478 48.5076 18.8193 47.057C18.3479 45.8471 18.041 44.6367 17.7381 43.4422C17.4198 42.1871 17.106 40.9497 16.6107 39.7494C15.3045 36.9231 13.1412 34.0973 11.1331 31.4742C10.5939 30.7698 10.0658 30.0801 9.56859 29.4088C9.03044 28.6372 8.31761 27.7428 7.52297 26.7457C3.63047 21.8617 -2.22508 14.5145 0.871051 7.07221C6.66968 -7.1294 26.9669 3.62404 34.8351 8.58826C35.6218 9.0933 36.4542 9.82656 37.3137 10.5837C38.5664 11.6872 39.8766 12.8413 41.1869 13.4138C42.9128 13.4832 44.6391 13.5866 46.3653 13.69C48.0909 13.7934 49.8165 13.8968 51.5414 13.9662C52.1069 14.0983 52.6692 14.2283 53.228 14.3575C59.0819 15.7111 64.5504 16.9756 69.2142 19.6183C92.961 33.5449 108.425 47.7465 122.645 71.1863C124.576 74.3408 125.894 77.6631 127.235 81.0466C128.004 82.9859 128.781 84.9453 129.686 86.9048C133.138 94.9011 137.005 103.311 141.008 110.895C141.511 111.9 141.981 112.937 142.452 113.976C143.663 116.645 144.879 119.329 146.669 121.512C147.312 122.43 148.751 122.92 150.13 123.389C150.822 123.624 151.499 123.855 152.053 124.132C153.839 125.05 155.773 125.884 157.723 126.725C160.748 128.029 163.81 129.349 166.412 131.026C174.42 135.989 182.152 141.917 189.193 147.985C190.617 149.257 191.796 150.812 192.974 152.366C193.967 153.676 194.959 154.985 196.096 156.12V157.36C193.887 158.05 191.678 158.739 189.47 159.291C187.066 159.908 184.799 160.15 182.55 160.39C180.277 160.632 178.023 160.873 175.663 161.497C175.362 161.583 175.053 161.672 174.739 161.763C172.023 162.545 168.858 163.456 166.136 163.704C166.274 163.842 166.412 163.979 166.412 163.979C167.743 167.762 173.401 171.014 178.039 173.679C179.656 174.608 181.148 175.466 182.29 176.25C187.675 180.111 192.645 184.799 196.648 190.175C197.335 190.861 198.022 191.513 198.709 192.164C199.403 192.823 200.097 193.481 200.791 194.174C201.258 194.842 201.564 195.606 201.865 196.358C202.186 197.159 202.501 197.946 203 198.587V199C201.791 198.57 200.961 197.708 200.137 196.853C199.643 196.339 199.151 195.829 198.581 195.416C197.279 194.529 195.978 193.567 194.677 192.604C192.941 191.321 191.206 190.038 189.47 188.935C186.798 187.25 183.911 185.922 181.01 184.588C178.215 183.303 175.405 182.011 172.763 180.387C169.726 178.456 166.826 176.25 163.927 174.045C161.303 172.114 158.406 168.39 156.747 165.633C156.33 164.978 156.067 164.271 155.813 163.59C155.481 162.696 155.165 161.848 154.538 161.221C154.745 159.262 156.651 158.767 158.465 158.297C159.077 158.138 159.677 157.982 160.2 157.774Z" fill="white"/>
<path d="M40.4939 34.7852C42.1509 34.3723 43.8071 34.0949 46.1536 34.0949C46.5913 34.5323 47.1374 34.9044 47.6888 35.2802C48.5293 35.853 49.382 36.4342 49.8818 37.2673C50.1886 37.6962 50.3863 38.125 50.584 38.5539C50.8312 39.0902 51.0784 39.6263 51.5388 40.1623C51.5388 43.4718 50.573 45.6773 48.6391 47.057C48.6391 47.057 48.501 47.1941 48.3637 47.3328C47.8117 46.2311 47.2946 45.1292 46.7775 44.0275C46.259 42.9227 45.7405 41.8181 45.1871 40.7139C44.6495 39.9622 44.0282 39.2731 43.4047 38.5816C42.4276 37.4978 41.4449 36.4078 40.7701 35.061H40.4939V34.7852Z" fill="white"/>
</svg>
