<svg width="28" height="25" viewBox="0 0 28 25" fill="none" xmlns="http://www.w3.org/2000/svg">
<path d="M26.5279 3.67165L27.579 2.56391C28.1115 2.00302 28.1535 1.23181 27.621 0.698967L27.2567 0.32037C26.7802 -0.156382 25.9814 -0.0862712 25.4629 0.432547L24.3698 1.49823L26.5279 3.67165ZM9.93572 18.5912L12.8085 17.3853L25.5049 4.68124L23.3468 2.53586L10.6504 15.2539L9.38918 18.0303C9.24904 18.3528 9.6134 18.7174 9.93572 18.5912ZM4.61051 28H20.9365C23.6271 28 25.2107 26.4295 25.2107 23.4288V8.62145L22.4079 11.4119V23.1764C22.4079 24.5225 21.6932 25.1956 20.7543 25.1956H4.79269C3.50343 25.1956 2.80274 24.5225 2.80274 23.1764V7.59784C2.80274 6.25172 3.50343 5.57866 4.79269 5.57866H16.6903L19.479 2.77424H4.61051C1.58355 2.77424 0 4.34471 0 7.34544V23.4288C0 26.4295 1.58355 28 4.61051 28Z" fill="white"/>
</svg>
