<svg width="18" height="20" viewBox="0 0 18 20" fill="none" xmlns="http://www.w3.org/2000/svg">
<path d="M1.65234 4.40527C1.78418 4.40527 1.88086 4.37891 2.0127 4.28223L5.12402 2.00586C5.26465 1.90039 5.35254 1.75098 5.35254 1.60156C5.35254 1.4082 5.25586 1.24121 5.09766 1.10059C4.71973 0.78418 4.11328 0.608398 3.55078 0.608398C2.12695 0.608398 0.975586 1.7334 0.975586 3.13086C0.975586 3.49121 1.03711 3.8252 1.13379 4.04492C1.23047 4.26465 1.42383 4.40527 1.65234 4.40527ZM16.3389 4.40527C16.5674 4.40527 16.752 4.25586 16.8574 4.04492C16.9541 3.83398 17.0068 3.49121 17.0068 3.13086C17.0068 1.7334 15.8643 0.608398 14.4404 0.608398C13.8691 0.608398 13.2715 0.78418 12.8936 1.10059C12.7354 1.24121 12.6387 1.4082 12.6387 1.60156C12.6387 1.75098 12.7178 1.90039 12.8672 2.00586L15.9785 4.28223C16.1104 4.37891 16.207 4.40527 16.3389 4.40527ZM1.56445 18.9424C1.87207 19.25 2.35547 19.2412 2.66309 18.9248L4.08691 17.5098C5.4668 18.4941 7.16309 19.0742 8.99121 19.0742C10.8281 19.0742 12.5156 18.4941 13.9043 17.5098L15.3281 18.9248C15.6357 19.2412 16.1191 19.25 16.4268 18.9424C16.7168 18.6523 16.7256 18.1777 16.418 17.8789L15.0557 16.5254C16.541 14.9961 17.4639 12.9131 17.4639 10.6104C17.4639 5.93457 13.6758 2.14648 8.99121 2.14648C4.31543 2.14648 0.527344 5.93457 0.527344 10.6104C0.527344 12.9131 1.44141 14.9961 2.93555 16.5254L1.57324 17.8789C1.26562 18.1777 1.27441 18.6523 1.56445 18.9424ZM8.99121 17.3076C5.29102 17.3076 2.29395 14.3105 2.29395 10.6104C2.29395 6.91016 5.29102 3.91309 8.99121 3.91309C12.6914 3.91309 15.6885 6.91016 15.6885 10.6104C15.6885 14.3105 12.6914 17.3076 8.99121 17.3076ZM5.17676 11.7002H8.99121C9.37793 11.7002 9.67676 11.4014 9.67676 11.0146V5.9082C9.67676 5.52148 9.37793 5.22266 8.99121 5.22266C8.60449 5.22266 8.30566 5.52148 8.30566 5.9082V10.3291H5.17676C4.79004 10.3291 4.49121 10.6367 4.49121 11.0146C4.49121 11.4014 4.79004 11.7002 5.17676 11.7002Z" fill="white"/>
</svg>
