<svg width="20" height="18" viewBox="0 0 20 18" fill="none" xmlns="http://www.w3.org/2000/svg">
<path d="M1.06155 12.1153C1.62405 12.6426 2.66995 12.7745 3.49612 12.0274C3.79495 11.7549 4.37503 11.1397 5.27151 10.2344C9.64846 5.81353 12.3291 3.0274 12.7949 3.45806C13.1729 3.79205 11.6787 5.90142 10.1846 7.97564C7.4512 11.7637 5.14846 14.5411 6.8887 16.2813C8.24221 17.6436 10.2901 16.4219 13.6035 13.5127C15.3789 11.9571 16.5918 10.8145 16.8907 11.1045C17.084 11.2979 16.6094 12.0626 16.0205 13.0733C15.1768 14.5411 14.043 16.1934 15.1504 17.3008C15.9239 18.0743 17.3916 17.7315 19.0967 16.0528C19.4483 15.7012 19.5274 15.2794 19.2285 14.9805C18.9473 14.7081 18.5518 14.752 18.253 15.0245C17.1719 16.0616 16.3545 16.5274 16.2227 16.3868C16.0645 16.2286 16.5391 15.3936 17.3389 13.9698C18.4551 11.9747 19.1407 10.6299 18.1035 9.61919C16.7149 8.26568 15.0889 9.68951 12.2852 12.1592C9.9385 14.2247 8.93655 14.796 8.7344 14.5674C8.42678 14.251 9.33206 13.0118 11.8985 9.42583C14.7022 5.50591 16.3809 2.93951 14.7901 1.39263C12.7246 -0.628853 9.92971 0.847709 3.10061 7.61529C2.08987 8.60845 1.45706 9.2149 1.13186 9.60162C0.31448 10.542 0.49905 11.5704 1.06155 12.1153Z" fill="white"/>
</svg>
